<svg fill="#0EA5E9" xmlns="http://www.w3.org/2000/svg" xmlns:xlink="http://www.w3.org/1999/xlink" version="1.1" x="0px" y="0px" viewBox="0 0 304.314 620" style="enable-background:new 0 0 304.314 496;" xml:space="preserve"><path d="M254.498,155.305l-22.184-2.465v-11.117c28.794-10.515,48-37.828,48-68.635C280.314,32.787,247.527,0,207.227,0h-46.913  c-22.056,0-40,17.944-40,40c0,19.317,13.764,35.478,32,39.195V104c0,19.316,13.765,35.479,32,39.196v9.865l-30.313,4.33  c-14.158,2.023-26.875,9.288-35.809,20.454l-12.772,15.965l-25.106-43.935V148c0-15.439-12.561-28-28-28s-28,12.561-28,28  c0,9.374,2.66,18.51,7.693,26.419l35.847,56.33c-18.59,9.149-32.265,26.875-35.705,48.667l-14.856,94.089  c-0.73,4.629,0.596,9.327,3.641,12.89c1.665,1.949,3.755,3.423,6.065,4.377L6.376,411.394c-8.501,8.501-8.501,22.335,0,30.837  c4.211,4.211,9.754,6.411,15.386,6.41c3.475,0,6.984-0.838,10.232-2.558l38.346-20.295c4.114-2.177,7.869-4.949,11.161-8.242  l0.575-0.575c8.604-8.605,13.419-19.981,13.636-32.114l14.501-76.963l67.559,33.78l36.422,109.267l-6.874,2.291  c-8.976,2.992-15.007,11.359-15.007,20.821c0,12.102,9.846,21.947,21.947,21.947h51.22c12.59,0,22.833-10.243,22.833-22.833  c0-6.584-0.625-13.202-1.856-19.669l-29.976-157.374l5.397-24.284c1.112,0.096,2.228,0.16,3.351,0.16  c21.551,0,39.085-17.533,39.085-39.085v-21.953C304.314,182.388,282.898,158.461,254.498,155.305z M154.011,63.154  C143.826,60.378,136.314,51.052,136.314,40c0-13.233,10.766-24,24-24h46.913c31.478,0,57.087,25.609,57.087,57.088  c0,22.046-12.594,41.8-32,51.273v-13.732c9.313-3.302,16-12.199,16-22.629c0-10.812-7.185-19.976-17.031-22.969  C228.29,55.186,219.126,48,208.314,48h-32C166.204,48,157.54,54.287,154.011,63.154z M45.506,165.829  c-3.396-5.338-5.192-11.503-5.192-17.829c0-6.617,5.383-12,12-12s12,5.383,12,12v6.125l32,55.999v13.89  c-4.413,0.045-8.724,0.523-12.896,1.39L45.506,165.829z M70.186,406.234c-2.161,2.161-4.627,3.982-7.33,5.413l-38.347,20.295  c-2.265,1.199-5.007,0.786-6.819-1.025c-2.264-2.264-2.264-5.947,0-8.21L48.397,392h30.279c-1.376,5.117-4.066,9.811-7.915,13.659  L70.186,406.234z M265.481,480h-51.22c-3.279,0-5.947-2.668-5.947-5.947c0-2.563,1.634-4.831,4.066-5.642L225.613,464h46.212  c0.315,3.048,0.489,6.111,0.489,9.167C272.314,476.935,269.249,480,265.481,480z M269.122,448H230.08l-36.939-110.818l13.83-20.744  l-13.313-8.875l-12.082,18.124l-71.298-35.649l-6.808-13.615l-14.311,7.156l6.794,13.589L81.101,376H33.096l14.856-94.088  c3.834-24.285,24.462-41.912,49.049-41.913c8.627,0,17.147,2.263,24.639,6.544l42.278,24.159c21.87,16.3,47.631,27.28,74.537,31.766  l3.044,0.507L269.122,448z M155.01,227.437l3.072,21.502l-14.024-8.014c0.748-0.811,1.476-1.643,2.168-2.509L155.01,227.437z   M288.314,232.915c0,12.729-10.356,23.085-23.085,23.085c-4.331,0-8.562-1.214-12.235-3.509l-47.041-29.4  c-3.531-2.207-5.64-6.011-5.64-10.176V212c0-6.617,5.383-12,12-12s12,5.383,12,12v10.246l34.49,8.623l6.354,12.709l14.311-7.156  l-7.155-14.311V192h-16v21.754l-16.091-4.022C239.065,195.348,226.99,184,212.314,184c-15.439,0-28,12.561-28,28v0.915  c0,9.718,4.92,18.595,13.16,23.744l47.041,29.4c0.655,0.409,1.326,0.787,2.001,1.155l-4.366,19.647l-1.065-0.177  c-23.48-3.914-45.992-13.293-65.33-27.166l-7.168-50.176l6.882-13.765l-14.311-7.156l-7.622,15.243l-19.805,24.756  c-1.243,1.554-2.638,2.959-4.143,4.236l-0.011-0.006c-5.414-3.093-11.236-5.384-17.264-6.83v-15.014l18.372-22.964  c6.381-7.977,15.465-13.166,25.578-14.61l44.05-6.293V128h-8c-13.233,0-24-10.767-24-24V72c0-4.411,3.589-8,8-8h32  c4.411,0,8,3.589,8,8v8h8c4.411,0,8,3.589,8,8s-3.589,8-8,8h-8v71.16l36.417,4.047c20.285,2.254,35.583,19.345,35.583,39.755  V232.915z"/></svg>