<svg fill="#0EA5E9" xmlns="http://www.w3.org/2000/svg" xmlns:xlink="http://www.w3.org/1999/xlink" version="1.1" x="0px" y="0px" viewBox="0 0 1024 1280" style="enable-background:new 0 0 1024 1024;" xml:space="preserve"><g><g><g><path d="M894.4,348.8c0.7,1.6,1.4,3.2,2.1,4.8c-1-2.4-2-4.8-3-7.2c15.2,36.2,25.6,74.2,31,113.1     c-0.4-2.7-0.7-5.3-1.1-8c5.3,39.9,5.4,80.4,0.1,120.3c0.4-2.7,0.7-5.3,1.1-8c-5.3,38.9-15.6,76.9-30.8,113c1-2.4,2-4.8,3-7.2     c-8.7,20.5-18.8,40.4-30.5,59.4c-5.8,9.5-12,18.9-18.6,27.9c-1.5,2.1-3.1,4.2-4.7,6.4c-0.8,1.1-1.6,2.1-2.4,3.1     c-2.7,3.5,4.7-6,1.1-1.4c-3.5,4.5-7.1,8.9-10.8,13.2c-14.2,16.8-29.7,32.6-46.3,47.2c-4.1,3.6-8.3,7.1-12.5,10.6     c-2.2,1.8-4.4,3.6-6.7,5.3c-0.5,0.4-1,0.8-1.6,1.2c-2.4,1.9,3.9-3.2,3.5-2.7c-0.8,1.1-2.6,2-3.7,2.8c-8.8,6.6-17.8,12.8-27,18.7     c-21.4,13.7-43.9,25.5-67.2,35.4c2.4-1,4.8-2,7.2-3c-36.2,15.2-74.2,25.5-113,30.8c2.7-0.4,5.3-0.7,8-1.1     c-39.7,5.3-79.9,5.3-119.5,0c2.7,0.4,5.3,0.7,8,1.1c-38.9-5.3-76.9-15.6-113-30.8c2.4,1,4.8,2,7.2,3     c-20.5-8.7-40.4-18.8-59.4-30.5c-9.5-5.8-18.9-12-27.9-18.6c-2.1-1.5-4.2-3.1-6.4-4.7c-1.1-0.8-2.1-1.6-3.1-2.4     c-3.5-2.7,6,4.7,1.4,1.1c-4.5-3.5-8.9-7.1-13.2-10.8c-16.8-14.2-32.6-29.7-47.2-46.3c-3.6-4.1-7.1-8.3-10.6-12.5     c-1.8-2.2-3.6-4.4-5.3-6.7c-0.4-0.5-0.8-1-1.2-1.6c-1.9-2.4,3.2,3.9,2.7,3.5c-1.1-0.8-2-2.6-2.8-3.7c-6.6-8.8-12.8-17.8-18.7-27     c-13.7-21.4-25.5-43.9-35.4-67.2c1,2.4,2,4.8,3,7.2c-15.2-36.2-25.5-74.2-30.8-113c0.4,2.7,0.7,5.3,1.1,8     c-5.3-39.7-5.3-79.9,0-119.5c-0.4,2.7-0.7,5.3-1.1,8c5.3-38.9,15.6-76.9,30.8-113c-1,2.4-2,4.8-3,7.2     c8.7-20.5,18.8-40.4,30.5-59.4c5.8-9.5,12-18.9,18.6-27.9c1.5-2.1,3.1-4.2,4.7-6.4c0.8-1.1,1.6-2.1,2.4-3.1     c2.7-3.5-4.7,6-1.1,1.4c3.5-4.5,7.1-8.9,10.8-13.2c14.2-16.8,29.7-32.6,46.3-47.2c4.1-3.6,8.3-7.1,12.5-10.6     c2.2-1.8,4.4-3.6,6.7-5.3c0.5-0.4,1-0.8,1.6-1.2c2.4-1.9-3.9,3.2-3.5,2.7c0.8-1.1,2.6-2,3.7-2.8c8.8-6.6,17.8-12.8,27-18.7     c21.4-13.7,43.9-25.5,67.2-35.4c-2.4,1-4.8,2-7.2,3c36.2-15.2,74.2-25.5,113-30.8c-2.7,0.4-5.3,0.7-8,1.1     c39.9-5.3,80.4-5.2,120.3,0.1c-2.7-0.4-5.3-0.7-8-1.1c38.9,5.4,76.9,15.8,113,31c-2.4-1-4.8-2-7.2-3c1.6,0.7,3.2,1.4,4.8,2.1     c7.7,3.3,14.7,5.3,23.1,3c7-1.9,14.5-7.3,17.9-13.8c3.7-7,5.5-15.4,3-23.1c-2.2-6.9-6.8-14.9-13.8-17.9     C653.3,55,598.6,41.2,541.6,37.5c-44.7-2.9-90,0.9-133.7,10.5c-79.9,17.5-154.3,57-215,111.6C132.5,213.9,87,284.3,61,361.2     c-27.2,80.4-31.3,168-13.9,250.9c16.8,80.1,55.7,154.9,109.8,216.1c53.9,60.9,123.8,106.8,200.5,133.5     c80.1,27.9,167.7,32.7,250.7,16c80.4-16.1,155.4-54.4,217.1-108c61.4-53.3,107.8-122.8,135.2-199.3     c31.4-87.7,35.3-185.2,12.6-275.4c-6.6-26.3-15.9-51.6-26.7-76.5c-2.8-6.4-11.5-12-17.9-13.8c-7.2-2-16.7-1.1-23.1,3     c-6.4,4.1-12,10.3-13.8,17.9C889.5,334,891,340.9,894.4,348.8L894.4,348.8z"/></g></g><g><g><path d="M778.9,454.1c1.9,8.6,3.4,17.2,4.6,25.8c-0.4-2.7-0.7-5.3-1.1-8c3.4,26.7,3.4,53.7,0,80.4     c0.4-2.7,0.7-5.3,1.1-8c-3.6,26.8-10.8,53-21.3,77.9c1-2.4,2-4.8,3-7.2c-5.9,13.8-12.7,27.2-20.6,40c-3.9,6.4-8,12.6-12.4,18.6     c-1,1.4-2.1,2.8-3.1,4.2c-0.7,0.9-1.3,1.7-2,2.6c-2.1,2.8,4.5-5.7,2.3-3c-2.3,2.9-4.6,5.8-7,8.6c-9.6,11.3-20,22-31.1,31.8     c-2.8,2.5-5.6,4.9-8.5,7.2c-1.4,1.1-2.7,2.2-4.1,3.3c-1,0.8-3.6,2.8,0.5-0.3c4.5-3.5,0.4-0.3-0.6,0.4c-6,4.5-12.1,8.7-18.4,12.7     c-14.3,9.2-29.4,17.1-45,23.7c2.4-1,4.8-2,7.2-3c-24.9,10.5-51.1,17.7-77.9,21.3c2.7-0.4,5.3-0.7,8-1.1     c-26.8,3.5-53.9,3.5-80.6,0c2.7,0.4,5.3,0.7,8,1.1c-26.8-3.6-53-10.8-77.9-21.3c2.4,1,4.8,2,7.2,3c-13.8-5.9-27.2-12.7-40-20.6     c-6.4-3.9-12.6-8-18.6-12.4c-1.4-1-2.8-2.1-4.2-3.1c-0.9-0.7-1.7-1.3-2.6-2c-2.8-2.1,5.7,4.5,3,2.3c-2.9-2.3-5.8-4.6-8.6-7     c-11.3-9.6-22-20-31.8-31.1c-2.5-2.8-4.9-5.6-7.2-8.5c-1.1-1.4-2.2-2.7-3.3-4.1c-0.8-1-2.8-3.6,0.3,0.5c3.5,4.5,0.3,0.4-0.4-0.6     c-4.5-6-8.7-12.1-12.7-18.4c-9.2-14.3-17.1-29.4-23.7-45c1,2.4,2,4.8,3,7.2c-10.5-24.9-17.7-51.1-21.3-77.9     c0.4,2.7,0.7,5.3,1.1,8c-3.5-26.8-3.5-53.9,0-80.6c-0.4,2.7-0.7,5.3-1.1,8c3.6-26.8,10.8-53,21.3-77.9c-1,2.4-2,4.8-3,7.2     c5.9-13.8,12.7-27.2,20.6-40c3.9-6.4,8-12.6,12.4-18.6c1-1.4,2.1-2.8,3.1-4.2c0.7-0.9,1.3-1.7,2-2.6c2.1-2.8-4.5,5.7-2.3,3     c2.3-2.9,4.6-5.8,7-8.6c9.6-11.3,20-22,31.1-31.8c2.8-2.5,5.6-4.9,8.5-7.2c1.4-1.1,2.7-2.2,4.1-3.3c1-0.8,3.6-2.8-0.5,0.3     c-4.5,3.5-0.4,0.3,0.6-0.4c6-4.5,12.1-8.7,18.4-12.7c14.3-9.2,29.4-17.1,45-23.7c-2.4,1-4.8,2-7.2,3     c24.9-10.5,51.1-17.7,77.9-21.3c-2.7,0.4-5.3,0.7-8,1.1c26.7-3.5,53.7-3.5,80.4,0c-2.7-0.4-5.3-0.7-8-1.1     c8.7,1.2,17.3,2.7,25.8,4.6c15.3,3.3,33.2-4.6,36.9-21c3.4-15.1-4.6-33.3-21-36.9c-60.7-13.3-125.2-10.5-183.9,10.5     c-50.6,18.1-97,47.8-133.6,87.3c-36.6,39.6-63.8,87.8-77.9,140c-14.7,54.5-15.1,112.7-1.7,167.5c13,52.8,39.5,101.6,75.6,142.1     c35.8,40.3,81.6,70.5,131.9,89.6c52.7,20.1,109.8,24.6,165.4,16.9c51.7-7.2,102.3-27.8,144.4-58.6     c43.2-31.7,79.5-72.6,103.4-120.8c25.5-51.3,38.1-108.7,35.1-166c-1-19.3-3.7-38.6-7.8-57.5c-3.4-15.4-22.1-25.8-36.9-21     C783.7,422.4,775.3,437.7,778.9,454.1L778.9,454.1z"/></g></g><g><g><path d="M629.6,496.1c1.2,11.8,1.1,23.6-0.4,35.4c0.4-2.7,0.7-5.3,1.1-8c-1.8,13-5.2,25.6-10.1,37.7     c1-2.4,2-4.8,3-7.2c-3.7,8.7-8.1,17.1-13.4,25c-1.3,2-2.7,4-4.1,5.9c-2.7,3.8,4.1-5.1,1.9-2.4c-0.7,0.8-1.4,1.7-2.1,2.6     c-3.1,3.7-6.3,7.3-9.7,10.7c-3.2,3.2-6.6,6.3-10.2,9.3c-0.8,0.7-1.7,1.4-2.5,2.1c-4.1,3.4,6.3-4.6,1.9-1.5     c-1.8,1.3-3.6,2.6-5.4,3.8c-8.1,5.4-16.6,10-25.6,13.8c2.4-1,4.8-2,7.2-3c-12.1,5-24.7,8.4-37.7,10.1c2.7-0.4,5.3-0.7,8-1.1     c-13,1.6-26,1.6-38.9,0c2.7,0.4,5.3,0.7,8,1.1c-13-1.8-25.6-5.2-37.7-10.1c2.4,1,4.8,2,7.2,3c-8.7-3.7-17.1-8.1-25-13.4     c-2-1.3-4-2.7-5.9-4.1c-3.8-2.7,5.1,4.1,2.4,1.9c-0.8-0.7-1.7-1.4-2.6-2.1c-3.7-3.1-7.3-6.3-10.7-9.7c-3.2-3.2-6.3-6.6-9.3-10.2     c-0.7-0.8-1.4-1.7-2.1-2.5c-3.4-4.1,4.6,6.3,1.5,1.9c-1.3-1.8-2.6-3.6-3.8-5.4c-5.4-8.1-10-16.6-13.8-25.6c1,2.4,2,4.8,3,7.2     c-5-12.1-8.4-24.7-10.1-37.7c0.4,2.7,0.7,5.3,1.1,8c-1.6-13-1.6-26,0-38.9c-0.4,2.7-0.7,5.3-1.1,8c1.8-13,5.2-25.6,10.1-37.7     c-1,2.4-2,4.8-3,7.2c3.7-8.7,8.1-17.1,13.4-25c1.3-2,2.7-4,4.1-5.9c2.7-3.8-4.1,5.1-1.9,2.4c0.7-0.8,1.4-1.7,2.1-2.6     c3.1-3.7,6.3-7.3,9.7-10.7c3.2-3.2,6.6-6.3,10.2-9.3c0.8-0.7,1.7-1.4,2.5-2.1c4.1-3.4-6.3,4.6-1.9,1.5c1.8-1.3,3.6-2.6,5.4-3.8     c8.1-5.4,16.6-10,25.6-13.8c-2.4,1-4.8,2-7.2,3c12.1-5,24.7-8.4,37.7-10.1c-2.7,0.4-5.3,0.7-8,1.1c12.3-1.6,24.7-1.6,37-0.2     c7.1,0.8,16.3-3.9,21.2-8.8c5.2-5.2,9.1-13.7,8.8-21.2c-0.3-7.8-2.9-15.8-8.8-21.2c-6.2-5.7-12.9-7.9-21.2-8.8     c-56.5-6.3-116,17.3-152.6,60.9c-18.3,21.8-32.1,47.1-38.5,75c-6.7,28.8-6.4,59.1,1.1,87.7c7.2,27.3,21.3,52.3,40,73.4     c18.8,21.3,42.9,36.7,69.2,47.2c51.7,20.7,114.4,13.6,160.7-17.2c48.3-32.2,78.6-85.1,81-143.3c0.3-7.4,0-14.9-0.7-22.2     c-0.8-8.2-2.8-15.2-8.8-21.2c-5.2-5.2-13.7-9.1-21.2-8.8C644.7,466.7,628,479.4,629.6,496.1L629.6,496.1z"/></g></g><g><g><path d="M936.3,154.7c-20.6,20.6-41.2,41.2-61.7,61.7c-32.5,32.5-65.1,65.1-97.6,97.6     c-7.5,7.5-15.1,15.1-22.6,22.6c7.1-2.9,14.1-5.9,21.2-8.8c-31.7-0.2-63.4-0.5-95.1-0.7c-4.5,0-9-0.1-13.6-0.1c10,10,20,20,30,30     c-0.2-31.7-0.5-63.4-0.7-95.1c0-4.5-0.1-9-0.1-13.6c-2.9,7.1-5.9,14.1-8.8,21.2c20.6-20.6,41.2-41.2,61.7-61.7     c32.5-32.5,65.1-65.1,97.6-97.6c7.5-7.5,15.1-15.1,22.6-22.6c-17.1-7.1-34.1-14.1-51.2-21.2c0.2,31.7,0.5,63.4,0.7,95.1     c0,4.5,0.1,9,0.1,13.6c0.1,16.3,13.7,29.9,30,30c31.7,0.2,63.4,0.5,95.1,0.7c4.5,0,9,0.1,13.6,0.1c15.7,0.1,30.7-13.9,30-30     c-0.7-16.4-13.2-29.9-30-30c-31.7-0.2-63.4-0.5-95.1-0.7c-4.5,0-9-0.1-13.6-0.1c10,10,20,20,30,30c-0.2-31.7-0.5-63.4-0.7-95.1     c0-4.5-0.1-9-0.1-13.6c-0.1-12-7.5-22.8-18.4-27.4c-11-4.6-24.2-2.4-32.8,6.2c-11.6,11.6-23.2,23.2-34.8,34.8c-24,24-48,48-72,72     c-20.7,20.7-41.4,41.4-62.2,62.2c-4.2,4.2-8.6,8.3-12.7,12.7c-6.3,6.7-9.1,15.1-9.1,24.1c0,5.1,0.1,10.2,0.1,15.3     c0.2,29.5,0.4,59.1,0.6,88.6c0,0.7,0,1.4,0,2.1c0.1,16.3,13.7,29.9,30,30c26.6,0.2,53.2,0.4,79.9,0.6c9.6,0.1,19.2,0.5,28.7,0.2     c13.9-0.4,20.9-8.4,29.5-17c19.2-19.2,38.4-38.4,57.6-57.6c24.6-24.6,49.1-49.1,73.7-73.7c13.9-13.9,28.1-27.6,41.8-41.8     c0.2-0.2,0.4-0.4,0.7-0.7c11.1-11.1,11.9-31.5,0-42.4C966.7,143.7,948.1,142.8,936.3,154.7z"/></g></g><g><g><path d="M534.7,531.7c17.2-17.2,34.5-34.5,51.7-51.7c27.6-27.6,55.2-55.2,82.8-82.8c6.3-6.3,12.6-12.6,18.9-18.9     c11.1-11.1,11.9-31.5,0-42.4c-12-11-30.6-11.9-42.4,0c-17.2,17.2-34.5,34.5-51.7,51.7c-27.6,27.6-55.2,55.2-82.8,82.8     c-6.3,6.3-12.6,12.6-18.9,18.9c-11.1,11.1-11.9,31.5,0,42.4C504.3,542.7,522.9,543.6,534.7,531.7L534.7,531.7z"/></g></g></g></svg>