<svg fill="#0EA5E9" xmlns="http://www.w3.org/2000/svg" xmlns:xlink="http://www.w3.org/1999/xlink" version="1.1" x="0px" y="0px" viewBox="0 0 160 200" style="enable-background:new 0 0 160 160;" xml:space="preserve"><path d="M147.337,150.081c-0.33-1.904-2.137-3.182-4.046-2.851c-11.205,1.938-22.956,0.16-33.084-5.013l-2.101-1.073  c-0.72-0.366-1.544-0.473-2.334-0.304l-12.161,2.636c-19.497,4.227-39.84-0.23-55.813-12.229l-10.32-7.754  c-0.32-0.24-0.679-0.424-1.062-0.543l-5.449-1.698c-0.811-0.253-1.356-0.993-1.356-1.844c0-3.779,0.506-7.542,1.503-11.185  l17.927-65.467c0.492-1.798,1.748-3.269,3.448-4.035l3.265-1.473c-0.105,1.114-0.164,2.241-0.164,3.382  c0,9.161,3.464,17.523,9.144,23.842c0.002,0.035,0.007,0.069,0.009,0.104l0.83,20.053c0.266,6.407-1.004,12.877-3.672,18.71  c-0.805,1.758-0.031,3.835,1.727,4.639c1.756,0.803,3.835,0.031,4.639-1.727c1.23-2.689,2.196-5.496,2.909-8.366  c0.081-0.062,0.168-0.112,0.245-0.182c4.534-4.135,10.406-6.413,16.534-6.413c9.912,0,18.813,5.929,22.677,15.104  c0.563,1.338,1.861,2.143,3.228,2.143c0.452,0,0.913-0.089,1.356-0.275c1.781-0.75,2.617-2.803,1.867-4.584  c-1.315-3.123-3.096-5.941-5.225-8.414c5.079-7.048,13.083-11.199,21.85-11.199c6.585,0,12.928,2.408,17.86,6.78  c1.444,1.281,3.657,1.15,4.94-0.297c1.282-1.447,1.149-3.659-0.298-4.941c-6.214-5.508-14.205-8.542-22.503-8.542  c-10.758,0-20.601,4.957-27.011,13.411c-5.317-3.93-11.832-6.185-18.742-6.185c-5.448,0-10.738,1.402-15.41,4.024  c0.056-1.324,0.077-2.65,0.022-3.974L62,70.648c5.513,3.544,12.056,5.608,19.074,5.608c19.565,0,35.483-15.981,35.483-35.625  S100.639,5.006,81.073,5.006c-15.406,0-28.544,9.911-33.437,23.714l-8.026,3.621c-3.608,1.627-6.276,4.751-7.321,8.568  l-17.926,65.466c-1.163,4.245-1.752,8.631-1.752,13.034c0,3.932,2.521,7.358,6.273,8.527l4.872,1.518l9.838,7.391  c17.6,13.219,40.016,18.128,61.5,13.474l10.94-2.371l0.988,0.505c8.442,4.312,17.879,6.542,27.334,6.542  c3.389,0,6.781-0.287,10.13-0.867C146.391,153.798,147.667,151.986,147.337,150.081z M109.557,40.631  c0,15.784-12.777,28.625-28.483,28.625S52.59,56.415,52.59,40.631s12.777-28.625,28.483-28.625S109.557,24.847,109.557,40.631z"/><path d="M89.048,132.892c-15.208,4.767-31.709-0.029-42.036-12.221l-2.586-3.053c-0.893-1.052-2.47-1.184-3.523-0.291  c-1.053,0.892-1.184,2.47-0.291,3.523l2.586,3.053c8.643,10.203,21.128,15.807,34.005,15.807c4.448,0,8.943-0.669,13.342-2.047  c1.317-0.413,2.051-1.815,1.638-3.134C91.769,133.212,90.363,132.479,89.048,132.892z"/><path d="M81.073,28.178c-6.843,0-12.409,5.586-12.409,12.453s5.566,12.453,12.409,12.453s12.409-5.586,12.409-12.453  S87.916,28.178,81.073,28.178z M73.664,40.631c0-4.11,3.324-7.453,7.409-7.453s7.409,3.343,7.409,7.453s-3.324,7.453-7.409,7.453  S73.664,44.741,73.664,40.631z"/></svg>