<svg fill="#0EA5E9" xmlns="http://www.w3.org/2000/svg" viewBox="0 0 32 40" x="0px" y="0px"><g><path d="M29.30371,11.03906,28.999,4.9502a.99943.99943,0,0,0-1.27441-.91114l-.2002.05664A11.01617,11.01617,0,0,1,16.707,1.293a.99962.99962,0,0,0-1.41406,0A11.03434,11.03434,0,0,1,4.47656,4.09668l-.20117-.05762A.99943.99943,0,0,0,3.001,4.9502l-.30469,6.08886A20.19355,20.19355,0,0,0,15.64062,30.93359a1.0056,1.0056,0,0,0,.71876,0A20.19355,20.19355,0,0,0,29.30371,11.03906ZM16,28.92383A18.19338,18.19338,0,0,1,4.69434,11.13867l.24316-4.874A13.012,13.012,0,0,0,16,3.36328,13.02045,13.02045,0,0,0,27.0625,6.26465l.24316,4.874A18.19338,18.19338,0,0,1,16,28.92383Z"/></g></svg>